<svg width="26" height="26" viewBox="0 0 26 26" fill="none" xmlns="http://www.w3.org/2000/svg">
<path d="M24.1252 11.1691H14.7431V1.78705C14.7431 0.804172 13.939 0 12.9561 0C11.9732 0 11.1691 0.804172 11.1691 1.78705V11.1691H1.78705C0.804172 11.1691 0 11.9732 0 12.9561C0 13.939 0.804172 14.7431 1.78705 14.7431H11.1691V24.1252C11.1691 25.108 11.9732 25.9122 12.9561 25.9122C13.939 25.9122 14.7431 25.108 14.7431 24.1252V14.7431H24.1252C25.108 14.7431 25.9122 13.939 25.9122 12.9561C25.9122 11.9732 25.108 11.1691 24.1252 11.1691Z" fill="#395C7C"/>
</svg>
