<svg width="24" height="38" viewBox="0 0 24 38" fill="none" xmlns="http://www.w3.org/2000/svg">
<path fill-rule="evenodd" clip-rule="evenodd" d="M12.079 25.5291L12.1021 25.5348L16.9252 26.8761C17.0699 26.9163 17.1783 27.0356 17.2056 27.1822L17.2085 27.1999C17.2365 27.4012 17.8747 32.154 16.2378 34.5183C14.6029 36.8799 12.1909 37.4851 12.089 37.5097C12.0588 37.517 12.0279 37.5206 11.997 37.5206C11.966 37.5206 11.9352 37.517 11.9049 37.5097L11.8623 37.4987C11.5164 37.4061 9.293 36.7382 7.75614 34.5183C6.11925 32.1539 6.75743 27.4011 6.78541 27.1999C6.80612 27.0511 6.90984 26.9278 7.05157 26.8813L7.06876 26.8761L11.8919 25.5348C11.953 25.5178 12.0172 25.5159 12.079 25.5291ZM11.9998 18.8805C18.0299 18.8805 22.9469 22.8517 23.1904 27.8269L23.1963 27.978C23.1986 28.0564 23.1998 35.6805 23.1998 35.6805H20.7993L20.7974 28.0494C20.6886 24.3931 16.8652 21.2805 11.9998 21.2805C7.1469 21.2805 3.32821 24.3782 3.20305 28.0243L3.20045 35.6805H0.799805L0.804465 27.9419C0.977092 22.913 5.92334 18.8805 11.9998 18.8805ZM11.9998 31.5205L9.1841 31.5206C9.30263 32.2391 9.48988 32.8062 9.72939 33.1522C10.1942 33.8236 10.7869 34.3422 11.4543 34.7269C11.6186 34.8216 11.7805 34.904 11.9371 34.9747L11.9969 35.0012L11.9997 34.9999L11.9998 31.5205ZM14.9375 28.8144L11.9997 27.9974L11.9998 31.5205L14.8097 31.5204L14.8172 31.475C14.8884 31.0284 14.9334 30.5254 14.9484 29.9819C14.9586 29.6113 14.955 29.2396 14.9402 28.8748L14.9375 28.8144ZM11.9998 0.480469C16.639 0.480469 20.3998 4.24128 20.3998 8.88047C20.3998 13.5197 16.639 17.2805 11.9998 17.2805C7.36061 17.2805 3.5998 13.5197 3.5998 8.88047C3.5998 4.24128 7.36061 0.480469 11.9998 0.480469ZM11.9998 2.88047C8.6861 2.88047 5.9998 5.56676 5.9998 8.88047C5.9998 12.1942 8.6861 14.8805 11.9998 14.8805C15.3135 14.8805 17.9998 12.1942 17.9998 8.88047C17.9998 5.56676 15.3135 2.88047 11.9998 2.88047Z" fill="#395C7C"/>
</svg>
