<svg width="30" height="30" viewBox="0 0 30 30" fill="none" xmlns="http://www.w3.org/2000/svg">
<path d="M25.5004 4.50039C22.7104 1.71039 18.9904 0.150391 15.0904 0.150391C15.0604 0.150391 15.0304 0.150391 15.0004 0.150391C11.0104 0.180391 7.29039 1.71039 4.50039 4.50039C1.71039 7.29039 0.150391 11.0404 0.150391 15.0004C0.150391 18.9904 1.68039 22.7404 4.47039 25.5304C7.26039 28.3204 11.0104 29.8804 14.9704 29.8804C18.9604 29.8804 22.7104 28.3504 25.5004 25.5304C28.3204 22.7104 29.8504 18.9904 29.8204 15.0004C29.8804 11.0404 28.3204 7.32039 25.5004 4.50039ZM1.68039 15.0004C1.68039 11.4304 3.06039 8.10039 5.58039 5.58039C8.07039 3.09039 11.4304 1.71039 15.0304 1.68039C15.0604 1.68039 15.0904 1.68039 15.1204 1.68039C18.3904 1.68039 21.4804 2.88039 23.9104 5.07039L5.04039 23.9104C2.85039 21.4504 1.68039 18.3304 1.68039 15.0004ZM24.4504 24.4504C21.9304 26.9704 18.5704 28.3504 14.9704 28.3504C11.6704 28.3504 8.52039 27.1504 6.09039 24.9604L24.9604 6.0904C27.1804 8.5504 28.3804 11.6704 28.3504 14.9704C28.3504 18.5704 27.0004 21.9304 24.4504 24.4504Z" fill="#395C7C"/>
</svg>
