<svg width="41" height="41" viewBox="0 0 41 41" fill="none" xmlns="http://www.w3.org/2000/svg">
<g clip-path="url(#clip0_706:2240)">
<path d="M5.12592 6.40639V1.28126C5.12592 0.572989 5.69891 0 6.40735 0C7.11545 0 7.68844 0.572989 7.68844 1.28126V6.40639C7.68844 7.1145 7.11545 7.68748 6.40735 7.68748C5.69891 7.68757 5.12592 7.1145 5.12592 6.40639ZM26.9074 7.68757C27.6153 7.68757 28.1886 7.11458 28.1886 6.40648V1.28126C28.1886 0.572989 27.6153 0 26.9074 0C26.1991 0 25.6257 0.572989 25.6257 1.28126V6.40639C25.6257 7.1145 26.1991 7.68757 26.9074 7.68757ZM41.0008 30.7498C41.0008 36.4109 36.4115 41.0001 30.7508 41.0001C25.0906 41.0001 20.5009 36.4109 20.5009 30.7498C20.5009 25.0895 25.0905 20.5 30.7508 20.5C36.4115 20.5 41.0008 25.0894 41.0008 30.7498ZM38.4386 30.7498C38.4386 26.5112 34.9902 23.0624 30.7509 23.0624C26.5119 23.0624 23.0635 26.5111 23.0635 30.7498C23.0635 34.9892 26.5119 38.4375 30.7509 38.4375C34.9902 38.4375 38.4386 34.9892 38.4386 30.7498ZM10.251 15.3751H5.12592V20.5H10.251V15.3751ZM5.12592 28.1876H10.251V23.0624H5.12592V28.1876ZM12.8134 20.5H17.9386V15.3751H12.8134V20.5ZM12.8134 28.1876H17.9386V23.0624H12.8134V28.1876ZM2.56358 30.495V12.8124H30.7509V17.9376H33.3135V7.94293C33.3135 6.38637 32.0721 5.12496 30.5383 5.12496H29.4697V6.40648C29.4697 7.8177 28.3208 8.96891 26.9075 8.96891C25.4937 8.96891 24.345 7.8177 24.345 6.40648V5.12496H8.96961V6.40648C8.96961 7.8177 7.82102 8.96891 6.40743 8.96891C4.99351 8.96891 3.84483 7.8177 3.84483 6.40648V5.12496H2.77744C1.24362 5.12496 0.000976562 6.38637 0.000976562 7.94293V30.4951C0.000976562 32.0465 1.24362 33.3128 2.77744 33.3128H17.9386V30.7499H2.77744C2.66134 30.7498 2.56358 30.6299 2.56358 30.495ZM25.6257 20.5V15.3751H20.501V20.5H25.6257ZM34.5947 30.7498H30.7508V26.9059C30.7508 26.198 30.1778 25.6251 29.4696 25.6251C28.7613 25.6251 28.1886 26.198 28.1886 26.9059V32.0315C28.1886 32.7394 28.7613 33.3127 29.4696 33.3127H34.5947C35.303 33.3127 35.8759 32.7394 35.8759 32.0315C35.8759 31.3232 35.303 30.7498 34.5947 30.7498Z" fill="#395C7C"/>
</g>
<defs>
<clipPath id="clip0_706:2240">
<rect width="41" height="41" fill="white"/>
</clipPath>
</defs>
</svg>
