<svg width="16" height="16" viewBox="0 0 16 16" fill="none" xmlns="http://www.w3.org/2000/svg">
<path d="M5.5 12.5V12H5H2C1.73478 12 1.48043 11.8946 1.29289 11.7071L0.941031 12.059L1.29289 11.7071C1.10536 11.5196 1 11.2652 1 11V2C1 1.44527 1.44951 1 2 1H14C14.2652 1 14.5196 1.10536 14.7071 1.29289C14.8946 1.48043 15 1.73478 15 2V11C15 11.2652 14.8946 11.5196 14.7071 11.7071C14.5196 11.8946 14.2652 12 14 12H9.425H9.2175L9.07097 12.1469L6.30176 14.9236C6.24073 14.9799 6.17638 15 6.125 15H5.75C5.68369 15 5.62011 14.9737 5.57322 14.9268C5.52634 14.8799 5.5 14.8163 5.5 14.75V12.5Z" fill="#395C7C" stroke="#395C7C"/>
</svg>
