<svg width="33" height="33" viewBox="0 0 33 33" fill="none" xmlns="http://www.w3.org/2000/svg">
<g clip-path="url(#clip0_706:2172)">
<path d="M16.1051 23.408C15.4538 23.408 14.9209 23.9409 14.9209 24.5922V25.3816C14.9209 26.0329 15.4538 26.5658 16.1051 26.5658C16.7564 26.5658 17.2893 26.0329 17.2893 25.3816V24.5922C17.2893 23.9409 16.7564 23.408 16.1051 23.408Z" fill="#395C7C"/>
<path d="M16.5 33C25.5987 33 33.0001 25.5987 33.0001 16.5C33.0001 7.40125 25.5987 0 16.5 0C7.40139 0 0 7.40132 0 16.5C0 25.5987 7.40132 33 16.5 33ZM16.5 2.36842C24.2961 2.36842 30.6316 8.70395 30.6316 16.5C30.6316 24.2961 24.2961 30.6316 16.5 30.6316C8.70395 30.6316 2.36842 24.296 2.36842 16.5C2.36842 8.70402 8.70395 2.36842 16.5 2.36842Z" fill="#395C7C"/>
<path d="M11.3686 13.5395C11.3883 13.5395 11.3883 13.5395 11.3686 13.5395C12.0199 13.5395 12.5528 13.0461 12.5528 12.3948C12.5528 12.3948 12.5725 11.4474 13.0462 10.5197C13.6383 9.33553 14.6844 8.74342 16.2239 8.74342C17.6646 8.74342 18.7304 9.13818 19.3225 9.90792C19.8159 10.5395 19.9541 11.4079 19.7173 12.3553C19.4212 13.5198 18.4147 14.5263 17.4476 15.5131C16.2634 16.7368 15.0199 17.9803 15.0199 19.6579C15.0199 20.3092 15.5528 20.8421 16.2042 20.8421C16.8555 20.8421 17.3884 20.3092 17.3884 19.6579C17.3884 18.9474 18.237 18.0789 19.145 17.171C20.27 16.0263 21.5529 14.7237 22.0068 12.9474C22.441 11.3092 22.1449 9.67108 21.1976 8.46708C20.4673 7.51971 19.0068 6.375 16.2436 6.375C13.1449 6.375 11.6647 8.0329 10.9541 9.45395C10.2436 10.875 10.2041 12.2368 10.2041 12.3948C10.2041 13.0263 10.7173 13.5395 11.3686 13.5395Z" fill="#395C7C"/>
</g>
<defs>
<clipPath id="clip0_706:2172">
<rect width="33" height="33" fill="white"/>
</clipPath>
</defs>
</svg>
