<svg width="40" height="40" viewBox="0 0 40 40" fill="none" xmlns="http://www.w3.org/2000/svg">
<path fill-rule="evenodd" clip-rule="evenodd" d="M20.079 25.5291L20.1021 25.5348L24.9252 26.8761C25.0699 26.9163 25.1783 27.0356 25.2056 27.1822L25.2085 27.1999C25.2365 27.4012 25.8747 32.154 24.2378 34.5183C22.6029 36.8799 20.1909 37.4851 20.089 37.5097C20.0588 37.517 20.0279 37.5206 19.997 37.5206C19.966 37.5206 19.9352 37.517 19.9049 37.5097L19.8623 37.4987C19.5164 37.4061 17.293 36.7382 15.7561 34.5183C14.1192 32.1539 14.7574 27.4011 14.7854 27.1999C14.8061 27.0511 14.9098 26.9278 15.0516 26.8813L15.0688 26.8761L19.8919 25.5348C19.953 25.5178 20.0172 25.5159 20.079 25.5291ZM19.9998 18.8805C26.0299 18.8805 30.9469 22.8517 31.1904 27.8269L31.1963 27.978C31.1986 28.0564 31.1998 35.6805 31.1998 35.6805H28.7993L28.7974 28.0494C28.6886 24.3931 24.8652 21.2805 19.9998 21.2805C15.1469 21.2805 11.3282 24.3782 11.2031 28.0243L11.2005 35.6805H8.7998L8.80447 27.9419C8.97709 22.913 13.9233 18.8805 19.9998 18.8805ZM19.9998 31.5205L17.1841 31.5206C17.3026 32.2391 17.4899 32.8062 17.7294 33.1522C18.1942 33.8236 18.7869 34.3422 19.4543 34.7269C19.6186 34.8216 19.7805 34.904 19.9371 34.9747L19.9969 35.0012L19.9997 34.9999L19.9998 31.5205ZM22.9375 28.8144L19.9997 27.9974L19.9998 31.5205L22.8097 31.5204L22.8172 31.475C22.8884 31.0284 22.9334 30.5254 22.9484 29.9819C22.9586 29.6113 22.955 29.2396 22.9402 28.8748L22.9375 28.8144ZM19.9998 0.480469C24.639 0.480469 28.3998 4.24128 28.3998 8.88047C28.3998 13.5197 24.639 17.2805 19.9998 17.2805C15.3606 17.2805 11.5998 13.5197 11.5998 8.88047C11.5998 4.24128 15.3606 0.480469 19.9998 0.480469ZM19.9998 2.88047C16.6861 2.88047 13.9998 5.56676 13.9998 8.88047C13.9998 12.1942 16.6861 14.8805 19.9998 14.8805C23.3135 14.8805 25.9998 12.1942 25.9998 8.88047C25.9998 5.56676 23.3135 2.88047 19.9998 2.88047Z" fill="#395C7C"/>
</svg>
