<?xml version="1.0" encoding="UTF-8" ?>
<!DOCTYPE svg PUBLIC "-//W3C//DTD SVG 1.1//EN" "http://www.w3.org/Graphics/SVG/1.1/DTD/svg11.dtd">
<svg width="30pt" height="30pt" viewBox="0 0 30 30" version="1.1" xmlns="http://www.w3.org/2000/svg">
<g id="#2c2c2db6">
<path fill="#2c2c2d" opacity="0.71" d=" M 16.94 6.97 C 18.72 5.25 20.75 2.72 23.55 3.52 C 27.02 4.09 28.46 7.76 28.21 10.92 C 23.84 15.36 19.50 19.84 15.01 24.16 C 12.14 27.28 6.72 27.18 3.88 24.08 C 0.81 20.92 1.31 15.44 4.63 12.65 C 8.12 9.62 10.70 5.18 15.22 3.62 C 12.26 8.16 7.64 11.22 4.35 15.47 C 1.38 19.01 4.59 24.89 8.99 25.00 C 12.30 25.52 14.51 22.62 16.64 20.60 C 19.74 17.26 23.27 14.32 26.16 10.79 C 28.09 8.67 25.48 6.47 24.14 4.90 C 23.37 4.94 21.85 5.00 21.09 5.04 C 17.52 8.49 14.05 12.04 10.49 15.50 C 9.17 16.70 8.28 18.27 7.62 19.91 L 9.75 19.75 C 9.00 20.44 8.24 21.12 7.46 21.78 C 7.11 20.28 5.72 18.49 7.10 17.09 C 10.09 13.45 13.77 10.45 16.94 6.97 Z" />
<path fill="#2c2c2d" opacity="0.71" d=" M 20.21 10.19 C 21.35 8.90 22.90 8.14 24.48 7.53 C 20.16 12.97 15.18 18.01 9.67 22.24 C 9.79 21.40 10.04 19.73 10.16 18.90 L 10.24 20.26 C 13.56 16.90 16.92 13.58 20.21 10.19 Z" />
</g>
</svg>
