<svg width="28" height="28" viewBox="0 0 28 28" fill="none" xmlns="http://www.w3.org/2000/svg">
<path d="M9.4 20.6667V19.6667H8.4H2.8C2.26962 19.6667 1.78967 19.4895 1.46029 19.215L0.827609 19.9742L1.46028 19.215C1.13622 18.945 1 18.622 1 18.3333V4.33333C1 3.75649 1.63034 3 2.8 3H25.2C25.7304 3 26.2103 3.17715 26.5397 3.45164C26.8638 3.7217 27 4.04467 27 4.33333V18.3333C27 18.622 26.8638 18.945 26.5397 19.215L27.1799 19.9832L26.5397 19.215C26.2103 19.4895 25.7304 19.6667 25.2 19.6667H16.66H16.2972L16.0188 19.8993L10.8516 24.2169C10.7549 24.2906 10.6286 24.3333 10.5 24.3333H9.8C9.64093 24.3333 9.51707 24.2791 9.45024 24.2234C9.41899 24.1974 9.40629 24.1766 9.40205 24.168C9.401 24.1659 9.40036 24.1644 9.4 24.1634V20.6667Z" stroke="#395C7C" stroke-width="2"/>
</svg>
