<svg width="48" height="48" viewBox="0 0 48 48" fill="none" xmlns="http://www.w3.org/2000/svg">
<path d="M6 24.5858V24C6 14.0589 14.0589 6 24 6C33.9411 6 42 14.0589 42 24C42 33.9411 33.9411 42 24 42C19.6619 42 15.5591 40.4588 12.3256 37.7011C10.917 36.4998 9.69935 35.0879 8.71925 33.5174C8.42685 33.0489 8.56963 32.432 9.03816 32.1396C9.50669 31.8472 10.1235 31.99 10.4159 32.4585C11.2874 33.855 12.3705 35.1108 13.6234 36.1794C16.4983 38.6312 20.1421 40 24 40C32.8366 40 40 32.8366 40 24C40 15.1634 32.8366 8 24 8C15.1634 8 8 15.1634 8 24V24.5858L10.2929 22.2929C10.6834 21.9024 11.3166 21.9024 11.7071 22.2929C12.0976 22.6834 12.0976 23.3166 11.7071 23.7071L7.70711 27.7071C7.31658 28.0976 6.68342 28.0976 6.29289 27.7071L2.29289 23.7071C1.90237 23.3166 1.90237 22.6834 2.29289 22.2929C2.68342 21.9024 3.31658 21.9024 3.70711 22.2929L6 24.5858ZM31.3939 26.0809C31.9015 26.2984 32.1367 26.8863 31.9191 27.3939C31.7016 27.9015 31.1137 28.1367 30.6061 27.9191L23.6061 24.9191C23.3435 24.8066 23.1416 24.5872 23.0513 24.3162L20.0513 15.3162C19.8767 14.7923 20.1598 14.226 20.6838 14.0513C21.2077 13.8767 21.774 14.1598 21.9487 14.6838L24.8067 23.2578L31.3939 26.0809Z" fill="#395C7C"/>
</svg>
