<svg width="39" height="39" viewBox="0 0 39 39" fill="none" xmlns="http://www.w3.org/2000/svg">
<path d="M29.5773 15.3789H14.6477C13.8936 15.3789 13.2842 14.6934 13.2842 13.8555C13.2842 13.0176 13.8936 12.332 14.6477 12.332H29.5773C30.3314 12.332 30.9408 13.0176 30.9408 13.8555C30.9408 14.6934 30.3314 15.3789 29.5773 15.3789Z" fill="#395C7C"/>
<path d="M9.99365 15.7979C11.0664 15.7979 11.936 14.9282 11.936 13.8555C11.936 12.7827 11.0664 11.9131 9.99365 11.9131C8.9209 11.9131 8.05127 12.7827 8.05127 13.8555C8.05127 14.9282 8.9209 15.7979 9.99365 15.7979Z" fill="#395C7C"/>
<path d="M29.5773 21.0234H14.6477C13.8936 21.0234 13.2842 20.3379 13.2842 19.5C13.2842 18.6621 13.8936 17.9766 14.6477 17.9766H29.5773C30.3314 17.9766 30.9408 18.6621 30.9408 19.5C30.9408 20.3379 30.3314 21.0234 29.5773 21.0234Z" fill="#395C7C"/>
<path d="M9.99365 21.4424C11.0664 21.4424 11.936 20.5727 11.936 19.5C11.936 18.4273 11.0664 17.5576 9.99365 17.5576C8.9209 17.5576 8.05127 18.4273 8.05127 19.5C8.05127 20.5727 8.9209 21.4424 9.99365 21.4424Z" fill="#395C7C"/>
<path d="M29.5773 26.667H14.6477C13.8936 26.667 13.2842 25.9814 13.2842 25.1436C13.2842 24.3057 13.8936 23.6201 14.6477 23.6201H29.5773C30.3314 23.6201 30.9408 24.3057 30.9408 25.1436C30.9408 25.9814 30.3314 26.667 29.5773 26.667Z" fill="#395C7C"/>
<path d="M9.99365 27.0859C11.0664 27.0859 11.936 26.2163 11.936 25.1436C11.936 24.0708 11.0664 23.2012 9.99365 23.2012C8.9209 23.2012 8.05127 24.0708 8.05127 25.1436C8.05127 26.2163 8.9209 27.0859 9.99365 27.0859Z" fill="#395C7C"/>
</svg>
