<svg width="24" height="22" viewBox="0 0 24 22" fill="none" xmlns="http://www.w3.org/2000/svg">
<path d="M15.6477 16.868C14.4874 17.9053 13.2488 19.0126 11.9967 20.2263C10.7471 19.015 9.51107 17.9095 8.35322 16.874L8.26694 16.7968C6.85773 15.5364 5.57856 14.3884 4.48799 13.2474C2.31 10.9687 1.02344 8.85835 1.02344 6.24744C1.02344 3.49447 3.25754 1.2608 6.01008 1.2608C7.32012 1.2608 8.21098 1.58115 8.9398 2.1642C9.70437 2.77584 10.3743 3.74205 11.1023 5.19792L11.9969 6.98671L12.8912 5.19779C13.619 3.74195 14.2887 2.77577 15.0532 2.16415C15.7819 1.58111 16.6728 1.26074 17.9828 1.26074C20.7432 1.26074 22.9766 3.49519 22.9766 6.24738C22.9766 8.85794 21.6886 10.9682 19.5088 13.2471C18.4173 14.3882 17.1373 15.5362 15.7274 16.7967L15.6477 16.868Z" stroke="#FF7979" stroke-width="2"/>
</svg>
