<svg width="24" height="20" viewBox="0 0 24 20" fill="none" xmlns="http://www.w3.org/2000/svg">
<path d="M22.5 19.75C22.3817 19.7503 22.2649 19.7226 22.1593 19.6692C22.0538 19.6157 21.9623 19.538 21.8925 19.4425L20.3025 17.2525C18.134 14.2795 14.8818 12.2802 11.25 11.6875V14.5C11.25 14.6393 11.2112 14.7758 11.138 14.8943C11.0648 15.0128 10.96 15.1085 10.8354 15.1708C10.7108 15.2331 10.5714 15.2595 10.4326 15.247C10.2939 15.2345 10.1614 15.1836 10.05 15.1L1.05 8.35C0.956853 8.28014 0.88125 8.18955 0.82918 8.08541C0.777109 7.98127 0.75 7.86643 0.75 7.75C0.75 7.63357 0.777109 7.51873 0.82918 7.41459C0.88125 7.31045 0.956853 7.21986 1.05 7.15L10.05 0.4C10.1614 0.31643 10.2939 0.265539 10.4326 0.253031C10.5714 0.240522 10.7108 0.26689 10.8354 0.32918C10.96 0.39147 11.0648 0.48722 11.138 0.605702C11.2112 0.724184 11.25 0.860716 11.25 1V4.18C14.5966 4.71513 17.6429 6.42551 19.8422 9.00415C22.0415 11.5828 23.2497 14.8609 23.25 18.25V19C23.2499 19.1582 23.1998 19.3122 23.1068 19.4402C23.0139 19.5682 22.8829 19.6635 22.7325 19.7125C22.6571 19.7359 22.5789 19.7485 22.5 19.75ZM10.5 10.0825H10.575C12.7381 10.3056 14.8302 10.9812 16.7153 12.0652C18.6005 13.1493 20.2366 14.6176 21.5175 16.375L21.6375 16.5325C21.2527 13.7139 19.9362 11.1049 17.8977 9.12068C15.8591 7.13648 13.2155 5.89103 10.3875 5.5825C10.2032 5.56211 10.033 5.47417 9.90974 5.33567C9.78647 5.19717 9.71887 5.01791 9.72 4.8325V2.5L2.7525 7.75L9.75 13V10.8325C9.75025 10.7278 9.7724 10.6244 9.81502 10.5288C9.85765 10.4332 9.91981 10.3476 9.9975 10.2775C10.135 10.1525 10.3141 10.083 10.5 10.0825Z" fill="#395C7C"/>
</svg>
