<?xml version="1.0" encoding="UTF-8" standalone="no"?>
<svg
   xmlns:dc="http://purl.org/dc/elements/1.1/"
   xmlns:cc="http://creativecommons.org/ns#"
   xmlns:rdf="http://www.w3.org/1999/02/22-rdf-syntax-ns#"
   xmlns:svg="http://www.w3.org/2000/svg"
   xmlns="http://www.w3.org/2000/svg"
   id="svg12"
   version="1.1"
   fill="none"
   viewBox="0 0 20 20"
   height="20"
   width="20">
  <metadata
     id="metadata18">
    <rdf:RDF>
      <cc:Work
         rdf:about="">
        <dc:format>image/svg+xml</dc:format>
        <dc:type
           rdf:resource="http://purl.org/dc/dcmitype/StillImage" />
      </cc:Work>
    </rdf:RDF>
  </metadata>
  <defs
     id="defs16" />
  <path
     id="path2"
     fill="#395C7C"
     d="M14.0002 20H5.9002C4.2502 20 2.9502 18.65 2.9502 17.05V8C2.9502 7.7 3.1502 7.5 3.4502 7.5C3.7502 7.5 3.9502 7.7 3.9502 8V17.05C3.9502 18.15 4.8502 19 5.9002 19H14.0002C15.1002 19 15.9502 18.1 15.9502 17.05V8C15.9502 7.7 16.1502 7.5 16.4502 7.5C16.7502 7.5 16.9502 7.7 16.9502 8V17.05C16.9502 18.65 15.6002 20 14.0002 20Z" />
  <path
     id="path4"
     fill="#395C7C"
     d="M16.6502 2.45H12.8502C12.6002 1.05 11.4002 0 9.9502 0C8.5002 0 7.3002 1.05 7.0502 2.45H3.2502C2.1002 2.45 1.2002 3.35 1.2002 4.5C1.2002 5.65 2.1002 6.5 3.2502 6.5H16.7002C17.8502 6.5 18.7502 5.6 18.7502 4.45C18.7502 3.3 17.8002 2.45 16.6502 2.45ZM9.9502 1C10.8502 1 11.6002 1.6 11.8002 2.45H8.0502C8.3002 1.6 9.0502 1 9.9502 1ZM16.6502 5.5H3.2502C2.7002 5.5 2.2002 5.05 2.2002 4.45C2.2002 3.9 2.6502 3.4 3.2502 3.4H16.7002C17.2502 3.4 17.7502 3.85 17.7502 4.45C17.7002 5.05 17.2502 5.5 16.6502 5.5Z" />
  <path
     id="path6"
     fill="#395C7C"
     d="M6.4502 17.5502C6.1502 17.5502 5.9502 17.3502 5.9502 17.0502V8.7002C5.9502 8.4002 6.1502 8.2002 6.4502 8.2002C6.7502 8.2002 6.9502 8.4002 6.9502 8.7002V17.0502C6.9502 17.3002 6.7002 17.5502 6.4502 17.5502Z" />
  <path
     id="path8"
     fill="#395C7C"
     d="M13.4502 17.5502C13.1502 17.5502 12.9502 17.3502 12.9502 17.0502V8.7002C12.9502 8.4002 13.1502 8.2002 13.4502 8.2002C13.7502 8.2002 13.9502 8.4002 13.9502 8.7002V17.0502C13.9502 17.3002 13.7002 17.5502 13.4502 17.5502Z" />
  <path
     id="path10"
     fill="#395C7C"
     d="M9.9502 17.5502C9.6502 17.5502 9.4502 17.3502 9.4502 17.0502V8.7002C9.4502 8.4002 9.6502 8.2002 9.9502 8.2002C10.2502 8.2002 10.4502 8.4002 10.4502 8.7002V17.0502C10.4502 17.3002 10.2002 17.5502 9.9502 17.5502Z" />
</svg>
