<svg width="42" height="42" viewBox="0 0 42 42" fill="none" xmlns="http://www.w3.org/2000/svg">
<path d="M21 15.75C20.4808 15.75 19.9733 15.596 19.5416 15.3076C19.11 15.0192 18.7735 14.6092 18.5748 14.1295C18.3761 13.6499 18.3242 13.1221 18.4254 12.6129C18.5267 12.1037 18.7767 11.636 19.1438 11.2688C19.511 10.9017 19.9787 10.6517 20.4879 10.5504C20.9971 10.4492 21.5249 10.5011 22.0045 10.6998C22.4842 10.8985 22.8942 11.235 23.1826 11.6666C23.471 12.0983 23.625 12.6058 23.625 13.125C23.625 13.8212 23.3484 14.4889 22.8562 14.9812C22.3639 15.4734 21.6962 15.75 21 15.75Z" fill="#395C7C"/>
<path d="M21 38.0625C17.6254 38.0625 14.3265 37.0618 11.5206 35.187C8.71468 33.3121 6.52773 30.6473 5.23631 27.5295C3.94489 24.4118 3.607 20.9811 4.26536 17.6713C4.92372 14.3615 6.54876 11.3212 8.935 8.935C11.3212 6.54876 14.3615 4.92372 17.6713 4.26536C20.9811 3.607 24.4118 3.94489 27.5295 5.23631C30.6473 6.52773 33.3121 8.71468 35.187 11.5206C37.0618 14.3265 38.0625 17.6254 38.0625 21C38.0625 25.5253 36.2649 29.8652 33.065 33.065C29.8652 36.2649 25.5253 38.0625 21 38.0625ZM21 6.56251C18.1445 6.56251 15.3532 7.40925 12.979 8.99566C10.6047 10.5821 8.75424 12.8369 7.6615 15.475C6.56876 18.1131 6.28285 21.016 6.83992 23.8166C7.39699 26.6172 8.77203 29.1897 10.7912 31.2089C12.8103 33.228 15.3828 34.603 18.1834 35.1601C20.984 35.7172 23.8869 35.4313 26.525 34.3385C29.1631 33.2458 31.4179 31.3953 33.0044 29.0211C34.5908 26.6468 35.4375 23.8555 35.4375 21C35.4375 17.1709 33.9164 13.4987 31.2089 10.7912C28.5013 8.0836 24.8291 6.56251 21 6.56251Z" fill="#395C7C"/>
<path d="M21 31.5C20.3038 31.5 19.6361 31.2234 19.1438 30.7312C18.6516 30.2389 18.375 29.5712 18.375 28.875V21C18.375 20.3038 18.6516 19.6361 19.1438 19.1438C19.6361 18.6516 20.3038 18.375 21 18.375C21.6962 18.375 22.3639 18.6516 22.8562 19.1438C23.3484 19.6361 23.625 20.3038 23.625 21V28.875C23.625 29.5712 23.3484 30.2389 22.8562 30.7312C22.3639 31.2234 21.6962 31.5 21 31.5Z" fill="#395C7C"/>
</svg>
