<svg width="30" height="30" viewBox="0 0 30 30" fill="none" xmlns="http://www.w3.org/2000/svg">
<path d="M20.5555 0C15.3333 0 11.1111 4.22222 11.1111 9.44442C11.1111 10.5555 11.3333 11.6666 11.6666 12.7777L0 24.4444V30H5.55555V26.6667H8.88889V23.3333H12.2222L17.2222 18.3334C18.2222 18.6667 19.3333 18.8889 20.5555 18.8889C25.7778 18.8889 29.9999 14.6667 29.9999 9.44447C29.9999 4.22228 25.7778 0 20.5555 0ZM23.3333 10C21.4444 10 20 8.55558 20 6.66667C20 4.77775 21.4444 3.33333 23.3333 3.33333C25.2222 3.33333 26.6667 4.77775 26.6667 6.66667C26.6667 8.55558 25.2222 10 23.3333 10Z" fill="#395C7C"/>
</svg>
