<svg width="32" height="32" viewBox="0 0 32 32" fill="none" xmlns="http://www.w3.org/2000/svg">
<path d="M24.257 11.1134C23.8665 10.7228 23.8665 10.0897 24.257 9.69914C24.6475 9.30862 25.2807 9.30862 25.6712 9.69914L31.328 15.356C31.7186 15.7465 31.7186 16.3797 31.328 16.7702L25.6712 22.4271C25.2807 22.8176 24.6475 22.8176 24.257 22.4271C23.8665 22.0365 23.8665 21.4034 24.257 21.0129L28.2778 16.992H6.03846C5.48643 16.992 5.03516 16.5443 5.03516 15.992C5.03516 15.4359 5.48435 14.992 6.03846 14.992H28.1357L24.257 11.1134Z" fill="#395C7C"/>
<path d="M18 31L19 30H1L2 31V24.0645V8.02148V1L1 2H19L18 1V10C18 10.5523 18.4477 11 19 11C19.5523 11 20 10.5523 20 10V1C20 0.447715 19.5523 0 19 0L1 0C0.447715 0 0 0.447715 0 1V8.02148L0 24.0645V31C0 31.5523 0.447715 32 1 32H19C19.5523 32 20 31.5523 20 31V22C20 21.4477 19.5523 21 19 21C18.4477 21 18 21.4477 18 22V31Z" fill="#395C7C"/>
</svg>
