<svg width="34" height="34" viewBox="0 0 34 34" fill="none" xmlns="http://www.w3.org/2000/svg">
<path d="M27.1178 34H6.88519C6.47007 34 6.11935 33.6915 6.06452 33.2812L3.06598 10.4248C3.0353 10.1872 3.10797 9.94988 3.26462 9.7706C3.42127 9.59285 3.64906 9.4895 3.88665 9.4895H30.1129C30.3505 9.4895 30.5781 9.59285 30.7349 9.7706C30.8916 9.94988 30.9642 10.1875 30.9336 10.4248L27.9385 33.2812C27.8835 33.6915 27.533 34 27.1178 34ZM7.61035 32.3458H26.3922L29.1708 11.1439H4.83025L7.61035 32.3458Z" fill="#395C7C"/>
<path d="M28.5687 10.8515L26.9273 10.6351L27.496 6.3087H6.51845L7.06933 10.5026L5.42799 10.719L4.75592 5.58963C4.72524 5.35204 4.79791 5.11467 4.95456 4.9354C5.11121 4.75764 5.339 4.6543 5.57659 4.6543H28.4392C28.6768 4.6543 28.9044 4.75764 29.0612 4.9354C29.2179 5.11467 29.2906 5.35378 29.2599 5.58963L28.5687 10.8515Z" fill="#395C7C"/>
<path d="M26.8464 5.73665L25.2051 5.52017L25.7125 1.65418H8.30192L8.79145 5.37962L7.15011 5.5961L6.53961 0.935331C6.50893 0.697745 6.5816 0.460377 6.73825 0.2811C6.8949 0.103345 7.1227 0 7.36028 0H26.6559C26.8934 0 27.121 0.103345 27.2779 0.2811C27.4345 0.460377 27.5072 0.697963 27.4765 0.935331L26.8464 5.73665Z" fill="#395C7C"/>
<path d="M25.008 15.9774H8.99512V17.6316H25.008V15.9774Z" fill="#395C7C"/>
<path d="M17.0017 20.782H8.99512V22.4362H17.0017V20.782Z" fill="#395C7C"/>
<path d="M20.3812 25.585H8.99512V27.2391H20.3812V25.585Z" fill="#395C7C"/>
</svg>
