<svg width="36" height="36" viewBox="0 0 36 36" fill="none" xmlns="http://www.w3.org/2000/svg">
<path d="M34.7061 11.2289L30.199 7.55159C29.5873 7.05237 28.6943 7.13674 28.1881 7.74143L25.7904 10.6172V2.19377C25.7904 1.39924 25.1506 0.759399 24.3561 0.759399H2.21465C1.42012 0.759399 0.780273 1.39924 0.780273 2.19377V33.7781C0.780273 34.5727 1.42012 35.2125 2.21465 35.2125H24.349C25.1436 35.2125 25.7834 34.5727 25.7834 33.7781V24.1805L34.8959 13.261C35.149 12.9656 35.599 12.0305 34.7061 11.2289V11.2289ZM22.9146 32.3438H3.64902V3.63518H22.9146V14.0625L15.8623 22.5141C15.7287 22.6758 15.6303 22.8586 15.574 23.0625L13.7881 29.7422C13.6404 30.2836 13.8232 30.8672 14.2592 31.2188C14.9271 31.7602 15.5951 31.5071 15.792 31.4086L22.092 28.3992C22.2748 28.3078 22.4436 28.1813 22.5771 28.0266L22.9146 27.6188V32.3438V32.3438ZM18.8014 26.7891L17.367 27.4781L17.7748 25.9594L18.8014 26.7891ZM21.1287 25.2844L18.8365 23.4352L29.4818 10.6805L31.767 12.5438L21.1287 25.2844Z" fill="#395C7C"/>
<path d="M7.7835 10.6242H18.7874C19.5819 10.6242 20.2218 9.9844 20.2218 9.18987C20.2218 8.39534 19.5819 7.75549 18.7874 7.75549H7.7835C6.98896 7.75549 6.34912 8.39534 6.34912 9.18987C6.34912 9.97737 6.98896 10.6242 7.7835 10.6242Z" fill="#395C7C"/>
<path d="M18.4007 16.4321C18.4007 15.6375 17.7608 14.9977 16.9663 14.9977H7.78349C6.98896 14.9977 6.34912 15.6375 6.34912 16.4321C6.34912 17.2266 6.98896 17.8664 7.78349 17.8664H16.9663C17.7538 17.8735 18.4007 17.2266 18.4007 16.4321Z" fill="#395C7C"/>
</svg>
