<svg width="33" height="33" viewBox="0 0 33 33" fill="none" xmlns="http://www.w3.org/2000/svg">
<path d="M26.9694 28.7513L28.0694 32.6013C28.1022 32.7162 28.1716 32.8173 28.267 32.8892C28.3624 32.9612 28.4786 33.0001 28.5981 33.0001C28.7177 33.0001 28.8339 32.9612 28.9293 32.8892C29.0247 32.8173 29.0941 32.7162 29.1269 32.6013L30.2269 28.7513C30.2408 28.7021 30.2478 28.6512 30.2475 28.6H30.2481V8.34465C30.5695 8.4587 30.8478 8.66942 31.0447 8.94789C31.2416 9.22637 31.3476 9.55896 31.348 9.90004V15.4C31.348 15.4854 31.3679 15.5697 31.4061 15.646L31.9561 16.746C31.988 16.8112 32.0326 16.8694 32.0871 16.9173C32.1417 16.9652 32.2052 17.0018 32.2739 17.025C32.3427 17.0482 32.4154 17.0576 32.4878 17.0526C32.5602 17.0476 32.6309 17.0283 32.6958 16.9958C32.7607 16.9633 32.8186 16.9183 32.866 16.8634C32.9135 16.8085 32.9496 16.7447 32.9723 16.6757C32.995 16.6068 33.0038 16.534 32.9982 16.4616C32.9926 16.3893 32.9728 16.3187 32.9398 16.254L32.4479 15.2702V9.90004C32.4471 9.17095 32.1571 8.47195 31.6416 7.95641C31.1261 7.44086 30.4271 7.15087 29.6981 7.15005H29.1481V6.60005C29.1481 6.45418 29.0902 6.31428 28.987 6.21114C28.8839 6.108 28.744 6.05005 28.5981 6.05005C28.4523 6.05005 28.3124 6.108 28.2093 6.21114C28.1061 6.31428 28.0482 6.45418 28.0482 6.60005V7.15005H27.4982C27.3524 7.15005 27.2125 7.20799 27.1093 7.31114C27.0062 7.41428 26.9482 7.55418 26.9482 7.70005V28.6H26.9491C26.9488 28.6511 26.9556 28.7021 26.9694 28.7513ZM28.5981 30.448L28.2273 29.15H28.969L28.5981 30.448ZM28.0482 8.25005H29.1481V9.35004H28.0482V8.25005ZM28.0482 10.45H29.1481V28.05H28.0482V10.45Z" fill="#395C7C"/>
<path d="M0.549969 30.8H2.74984V32.45C2.74984 32.5958 2.80779 32.7357 2.91093 32.8389C3.01407 32.942 3.15395 33 3.29981 33H25.2986C25.4444 33 25.5843 32.942 25.6875 32.8389C25.7906 32.7357 25.8485 32.5958 25.8485 32.45V2.75C25.8485 2.60413 25.7906 2.46423 25.6875 2.36109C25.5843 2.25794 25.4444 2.2 25.2986 2.2H23.0987V0.549999C23.0987 0.40413 23.0407 0.264236 22.9376 0.161091C22.8345 0.0579462 22.6946 0 22.5487 0H0.549969C0.404108 0 0.264221 0.0579462 0.161082 0.161091C0.0579429 0.264236 0 0.40413 0 0.549999V30.25C0 30.3958 0.0579429 30.5357 0.161082 30.6389C0.264221 30.742 0.404108 30.8 0.549969 30.8ZM24.7486 3.3V31.9H3.84978V3.3H24.7486ZM1.09994 1.1H21.9988V2.2H3.29981C3.15395 2.2 3.01407 2.25794 2.91093 2.36109C2.80779 2.46423 2.74984 2.60413 2.74984 2.75V29.7H1.09994V1.1Z" fill="#395C7C"/>
<path d="M8.51797 12.0226C8.6041 12.0739 8.70262 12.1007 8.80289 12.1001C8.90315 12.0995 9.00134 12.0715 9.08684 12.0192C9.21011 11.9438 12.0996 10.1333 12.0996 6.60015C12.0996 6.50517 12.075 6.41181 12.0283 6.32916C11.9815 6.24651 11.9141 6.17739 11.8326 6.12852L9.08279 4.47853C8.99731 4.42724 8.89951 4.40015 8.79983 4.40015C8.70015 4.40015 8.60234 4.42724 8.51687 4.47853L5.76703 6.12852C5.68602 6.17713 5.61889 6.24579 5.57213 6.32788C5.52536 6.40996 5.50053 6.50272 5.50002 6.59719C5.49919 6.74452 5.51493 10.2321 8.51797 12.0226ZM8.79983 5.59159L10.9908 6.90622C10.8636 9.07631 9.4083 10.4125 8.78732 10.8874C7.04735 9.66756 6.69132 7.6545 6.61859 6.90038L8.79983 5.59159Z" fill="#395C7C"/>
<path d="M13.7492 8.2499H21.4488C21.5946 8.2499 21.7345 8.19196 21.8376 8.08881C21.9408 7.98567 21.9987 7.84577 21.9987 7.6999C21.9987 7.55403 21.9408 7.41414 21.8376 7.31099C21.7345 7.20785 21.5946 7.1499 21.4488 7.1499H13.7492C13.6033 7.1499 13.4634 7.20785 13.3603 7.31099C13.2572 7.41414 13.1992 7.55403 13.1992 7.6999C13.1992 7.84577 13.2572 7.98567 13.3603 8.08881C13.4634 8.19196 13.6033 8.2499 13.7492 8.2499Z" fill="#395C7C"/>
<path d="M13.7492 10.4499H21.4488C21.5946 10.4499 21.7345 10.3919 21.8376 10.2888C21.9408 10.1856 21.9987 10.0457 21.9987 9.89985C21.9987 9.75398 21.9408 9.61409 21.8376 9.51094C21.7345 9.4078 21.5946 9.34985 21.4488 9.34985H13.7492C13.6033 9.34985 13.4634 9.4078 13.3603 9.51094C13.2572 9.61409 13.1992 9.75398 13.1992 9.89985C13.1992 10.0457 13.2572 10.1856 13.3603 10.2888C13.4634 10.3919 13.6033 10.4499 13.7492 10.4499Z" fill="#395C7C"/>
<path d="M5.49968 14.8502H23.0987C23.2445 14.8502 23.3844 14.7923 23.4876 14.6892C23.5907 14.586 23.6486 14.4461 23.6486 14.3002C23.6486 14.1544 23.5907 14.0145 23.4876 13.9113C23.3844 13.8082 23.2445 13.7502 23.0987 13.7502H5.49968C5.35382 13.7502 5.21393 13.8082 5.11079 13.9113C5.00765 14.0145 4.94971 14.1544 4.94971 14.3002C4.94971 14.4461 5.00765 14.586 5.11079 14.6892C5.21393 14.7923 5.35382 14.8502 5.49968 14.8502Z" fill="#395C7C"/>
<path d="M5.49968 17.0499H23.0987C23.2445 17.0499 23.3844 16.992 23.4876 16.8889C23.5907 16.7857 23.6486 16.6458 23.6486 16.5C23.6486 16.3541 23.5907 16.2142 23.4876 16.111C23.3844 16.0079 23.2445 15.95 23.0987 15.95H5.49968C5.35382 15.95 5.21393 16.0079 5.11079 16.111C5.00765 16.2142 4.94971 16.3541 4.94971 16.5C4.94971 16.6458 5.00765 16.7857 5.11079 16.8889C5.21393 16.992 5.35382 17.0499 5.49968 17.0499Z" fill="#395C7C"/>
<path d="M5.49968 19.2499H23.0987C23.2445 19.2499 23.3844 19.192 23.4876 19.0888C23.5907 18.9857 23.6486 18.8458 23.6486 18.6999C23.6486 18.554 23.5907 18.4141 23.4876 18.311C23.3844 18.2078 23.2445 18.1499 23.0987 18.1499H5.49968C5.35382 18.1499 5.21393 18.2078 5.11079 18.311C5.00765 18.4141 4.94971 18.554 4.94971 18.6999C4.94971 18.8458 5.00765 18.9857 5.11079 19.0888C5.21393 19.192 5.35382 19.2499 5.49968 19.2499Z" fill="#395C7C"/>
<path d="M5.49968 21.4501H23.0987C23.2445 21.4501 23.3844 21.3921 23.4876 21.289C23.5907 21.1859 23.6486 21.046 23.6486 20.9001C23.6486 20.7542 23.5907 20.6143 23.4876 20.5112C23.3844 20.408 23.2445 20.3501 23.0987 20.3501H5.49968C5.35382 20.3501 5.21393 20.408 5.11079 20.5112C5.00765 20.6143 4.94971 20.7542 4.94971 20.9001C4.94971 21.046 5.00765 21.1859 5.11079 21.289C5.21393 21.3921 5.35382 21.4501 5.49968 21.4501Z" fill="#395C7C"/>
<path d="M5.49968 23.6501H23.0987C23.2445 23.6501 23.3844 23.5921 23.4876 23.489C23.5907 23.3858 23.6486 23.2459 23.6486 23.1C23.6486 22.9542 23.5907 22.8143 23.4876 22.7111C23.3844 22.608 23.2445 22.55 23.0987 22.55H5.49968C5.35382 22.55 5.21393 22.608 5.11079 22.7111C5.00765 22.8143 4.94971 22.9542 4.94971 23.1C4.94971 23.2459 5.00765 23.3858 5.11079 23.489C5.21393 23.5921 5.35382 23.6501 5.49968 23.6501Z" fill="#395C7C"/>
<path d="M5.49968 25.85H23.0987C23.2445 25.85 23.3844 25.7921 23.4876 25.6889C23.5907 25.5858 23.6486 25.4459 23.6486 25.3C23.6486 25.1541 23.5907 25.0142 23.4876 24.9111C23.3844 24.8079 23.2445 24.75 23.0987 24.75H5.49968C5.35382 24.75 5.21393 24.8079 5.11079 24.9111C5.00765 25.0142 4.94971 25.1541 4.94971 25.3C4.94971 25.4459 5.00765 25.5858 5.11079 25.6889C5.21393 25.7921 5.35382 25.85 5.49968 25.85Z" fill="#395C7C"/>
<path d="M23.0987 28.5999H18.5453L18.1207 27.326C18.091 27.2371 18.0392 27.1572 17.97 27.0939C17.9008 27.0307 17.8165 26.9862 17.7253 26.9647C17.6341 26.9431 17.5388 26.9453 17.4487 26.9709C17.3585 26.9965 17.2764 27.0447 17.2101 27.111L16.0997 28.2218L15.891 27.8043C15.8561 27.7346 15.8068 27.673 15.7463 27.6238C15.6858 27.5745 15.6156 27.5387 15.5402 27.5187C15.4648 27.4987 15.3861 27.495 15.3092 27.5077C15.2322 27.5205 15.1589 27.5494 15.094 27.5927L13.5827 28.5999H12.0993C11.9534 28.5999 11.8135 28.6579 11.7104 28.761C11.6073 28.8642 11.5493 29.0041 11.5493 29.1499C11.5493 29.2958 11.6073 29.4357 11.7104 29.5389C11.8135 29.642 11.9534 29.6999 12.0993 29.6999H13.7492C13.8578 29.7 13.964 29.6678 14.0543 29.6075L15.186 28.8531L15.4574 29.3959C15.4964 29.4739 15.5533 29.5414 15.6235 29.593C15.6937 29.6446 15.7752 29.6788 15.8612 29.6928C15.8903 29.6975 15.9196 29.6999 15.9491 29.6999C16.0213 29.6999 16.0928 29.6857 16.1595 29.6581C16.2263 29.6304 16.2869 29.5899 16.338 29.5389L17.3584 28.5181L17.627 29.3239C17.6635 29.4334 17.7335 29.5287 17.8272 29.5962C17.9209 29.6637 18.0335 29.7 18.1489 29.6999H23.0987C23.2445 29.6999 23.3844 29.642 23.4875 29.5389C23.5907 29.4357 23.6486 29.2958 23.6486 29.1499C23.6486 29.0041 23.5907 28.8642 23.4875 28.761C23.3844 28.6579 23.2445 28.5999 23.0987 28.5999Z" fill="#395C7C"/>
</svg>
