<svg width="33" height="27" viewBox="0 0 33 27" fill="none" xmlns="http://www.w3.org/2000/svg">
<g clip-path="url(#clip0_706:2181)">
<path fill-rule="evenodd" clip-rule="evenodd" d="M2.59513 27.0001H30.3901C31.5451 27.0001 32.2651 25.7551 31.6951 24.7501L17.7901 0.750088C17.2051 -0.254912 15.7651 -0.254912 15.1951 0.750088L1.29013 24.7501C0.720128 25.7551 1.44013 27.0001 2.59513 27.0001ZM18.0001 22.5001H15.0001V19.5001H18.0001V22.5001ZM16.5001 16.5001C15.6751 16.5001 15.0001 15.8251 15.0001 15.0001V12.0001C15.0001 11.1751 15.6751 10.5001 16.5001 10.5001C17.3251 10.5001 18.0001 11.1751 18.0001 12.0001V15.0001C18.0001 15.8251 17.3251 16.5001 16.5001 16.5001Z" fill="#395C7C"/>
</g>
<defs>
<clipPath id="clip0_706:2181">
<rect width="33" height="27" fill="white"/>
</clipPath>
</defs>
</svg>
