<svg width="37" height="37" viewBox="0 0 37 37" fill="none" xmlns="http://www.w3.org/2000/svg">
<path d="M31.827 20.8541L31.2188 20.5026C30.495 20.0852 30.0626 19.336 30.0626 18.5C30.0626 17.664 30.495 16.9148 31.2188 16.4974L31.827 16.1459C33.4874 15.1862 34.0551 13.0679 33.0966 11.4076L31.9403 9.40494C30.9841 7.74803 28.8578 7.17916 27.202 8.13537L26.5938 8.48572C25.87 8.90428 25.004 8.90428 24.2813 8.48572C23.5575 8.06716 23.1251 7.31906 23.1251 6.48309V5.78125C23.1251 3.86881 21.5688 2.3125 19.6563 2.3125H17.3438C15.4314 2.3125 13.8751 3.86881 13.8751 5.78125V6.48425C13.8751 7.32022 13.4426 8.06831 12.7188 8.48688C11.995 8.90428 11.1301 8.90544 10.4063 8.48688L9.79815 8.13537C8.1424 7.17916 6.01605 7.74803 5.05868 9.40494L3.90243 11.4076C2.9439 13.0679 3.51161 15.1873 5.17199 16.1459L5.78133 16.4974C6.50515 16.9148 6.93758 17.664 6.93758 18.5C6.93758 19.336 6.50515 20.0852 5.78133 20.5026L5.17315 20.8541C3.51277 21.8127 2.94505 23.9321 3.90358 25.5924L5.05983 27.5951C6.01721 29.252 8.14355 29.8208 9.79815 28.8646L10.4063 28.5143C11.1301 28.0946 11.995 28.0969 12.7188 28.5143C13.4426 28.9328 13.8751 29.6809 13.8751 30.5169V31.2188C13.8751 33.1312 15.4314 34.6875 17.3438 34.6875H19.6563C21.5688 34.6875 23.1251 33.1312 23.1251 31.2188V30.5158C23.1251 29.6798 23.5575 28.9317 24.2813 28.5131C25.004 28.0957 25.87 28.0946 26.5938 28.5131L27.202 28.8646C28.8578 29.8197 30.9841 29.2508 31.9403 27.5951L33.0966 25.5924C34.0551 23.9321 33.4874 21.8127 31.827 20.8541ZM18.5001 24.2812C15.3123 24.2812 12.7188 21.6878 12.7188 18.5C12.7188 15.3122 15.3123 12.7188 18.5001 12.7188C21.6879 12.7188 24.2813 15.3122 24.2813 18.5C24.2813 21.6878 21.6879 24.2812 18.5001 24.2812Z" fill="#395C7C"/>
</svg>
