<svg width="43" height="28" viewBox="0 0 43 28" fill="none" xmlns="http://www.w3.org/2000/svg">
<path d="M28.4312 6.95042C28.4312 6.93975 28.4312 6.92907 28.4312 6.92145C28.4312 6.41508 28.3739 5.92853 28.2731 5.45266C27.5989 2.33512 24.8206 0 21.5009 0C18.1537 0 15.3594 2.36716 14.7104 5.51977C14.6218 5.95598 14.573 6.41051 14.5714 6.87417C14.5714 6.88941 14.5684 6.9062 14.5684 6.92145C14.5684 10.4295 17.1849 13.3228 20.5725 13.7758C20.8771 13.8154 21.1848 13.8444 21.5009 13.8444C21.7788 13.8444 22.0476 13.8262 22.3155 13.7926C25.7482 13.3884 28.4151 10.4844 28.4312 6.95042Z" fill="#323B5A"/>
<path d="M37.4359 16.4268L34.653 20.1284L31.87 16.4268C31.544 16.5411 31.2333 16.683 30.9248 16.837C33.1558 19.0714 34.5407 22.1646 34.5407 25.5933V28.0001H43.0003V24.4067C43.0003 20.7172 40.6746 17.5905 37.4359 16.4268Z" fill="#323B5A"/>
<path d="M30.7071 7.01924C30.5407 7.21446 30.3895 7.41884 30.2544 7.63695C29.7489 8.4377 29.4512 9.3818 29.4512 10.3961C29.4512 10.7042 29.4818 11.0031 29.5337 11.2929C29.7146 12.324 30.1948 13.2452 30.8866 13.9697C31.2462 14.351 31.6623 14.6758 32.1234 14.9351C32.8724 15.3515 33.7329 15.5894 34.6529 15.5894C37.5229 15.5894 39.8531 13.265 39.8531 10.3961C39.8531 8.02435 38.2581 6.0248 36.0837 5.40404C35.8989 5.3537 35.7096 5.31251 35.5195 5.27895C35.3653 5.25456 35.211 5.23626 35.0545 5.22405C34.9216 5.2149 34.7896 5.20117 34.6529 5.20117C33.0717 5.20117 31.6607 5.90888 30.7071 7.01924Z" fill="#323B5A"/>
<path d="M5.56282 16.4268L8.34728 20.1284L11.1302 16.4268C11.4562 16.5411 11.767 16.683 12.0754 16.837C9.8422 19.0714 8.45874 22.1646 8.45874 25.5933V28.0001H0V24.4067C0 20.7172 2.3256 17.5905 5.56282 16.4268Z" fill="#323B5A"/>
<path d="M12.2926 7.01924C12.459 7.21446 12.6118 7.41884 12.7476 7.63695C13.2515 8.4377 13.5478 9.3818 13.5478 10.3961C13.5478 10.7042 13.5172 11.0031 13.4653 11.2929C13.2859 12.324 12.8057 13.2452 12.114 13.9697C11.7536 14.351 11.3382 14.6758 10.8771 14.9351C10.1281 15.3515 9.26763 15.5894 8.34763 15.5894C5.47765 15.5894 3.14746 13.265 3.14746 10.3961C3.14746 8.02435 4.74317 6.0248 6.91761 5.40404C7.10084 5.3537 7.28943 5.31251 7.48411 5.27895C7.63223 5.25456 7.78951 5.23626 7.94603 5.22405C8.07888 5.2149 8.21097 5.20117 8.34763 5.20117C9.92731 5.20117 11.3398 5.90888 12.2926 7.01924Z" fill="#323B5A"/>
<path d="M28.661 16.9714C27.9273 16.343 27.1096 15.8138 26.2324 15.3913C25.8979 15.2296 25.5597 15.0832 25.207 14.9551L24.3122 16.1508L22.3156 18.8062L21.4972 19.8937L20.5726 18.6629L18.7142 16.1859L17.7919 14.9551C17.4239 15.0908 17.0643 15.2479 16.7139 15.4172C15.8366 15.8427 15.0235 16.375 14.289 17.0111C13.8844 17.3603 13.5041 17.7432 13.1537 18.1488C11.4274 20.1317 10.373 22.7352 10.373 25.5935V28.0003H32.6259V25.5935C32.6259 22.7123 31.5562 20.0935 29.8032 18.097C29.4505 17.6959 29.0687 17.3207 28.661 16.9714Z" fill="#323B5A"/>
</svg>
